{
  "accessors": [
    {
      "bufferView": 2,
      "componentType": 5126,
      "count": 747,
      "max": [
        2.343040943145752,
        5.4185638427734375,
        2.399991989135742
      ],
      "min": [
        -2.428178548812866,
        -2.0020623207092285,
        -2.393618583679199
      ],
      "type": "VEC3"
    },
    {
      "bufferView": 2,
      "byteOffset": 8964,
      "componentType": 5126,
      "count": 747,
      "max": [
        0.9899166822433472,
        0.9956936836242676,
        0.9966697692871094
      ],
      "min": [
        -0.9918509125709534,
        -0.9785810112953186,
        -0.999247670173645
      ],
      "type": "VEC3"
    },
    {
      "bufferView": 1,
      "componentType": 5126,
      "count": 747,
      "max": [
        0.9610307216644287,
        0.7794266939163208
      ],
      "min": [
        0.03128136694431305,
        0.044398367404937744
      ],
      "type": "VEC2"
    },
    {
      "bufferView": 0,
      "componentType": 5125,
      "count": 3576,
      "type": "SCALAR"
    }
  ],
  "asset": {
    "extras": {
      "author": "Luquez18 (https://sketchfab.com/Luquez18)",
      "license": "SKETCHFAB Standard (https://sketchfab.com/licenses)",
      "source": "https://sketchfab.com/3d-models/teto-pear-f4857a4ddad34e3a91753675afad4872",
      "title": "Teto Pear"
    },
    "generator": "Sketchfab-16.72.0",
    "version": "2.0"
  },
  "bufferViews": [
    {
      "buffer": 0,
      "byteLength": 14304,
      "name": "floatBufferViews",
      "target": 34963
    },
    {
      "buffer": 0,
      "byteLength": 5976,
      "byteOffset": 14304,
      "byteStride": 8,
      "name": "floatBufferViews",
      "target": 34962
    },
    {
      "buffer": 0,
      "byteLength": 17928,
      "byteOffset": 20280,
      "byteStride": 12,
      "name": "floatBufferViews",
      "target": 34962
    }
  ],
  "buffers": [
    {
      "byteLength": 38208,
      "uri": "scene.bin"
    }
  ],
  "images": [
    {
      "uri": "textures/tetopear_baseColor.png"
    }
  ],
  "materials": [
    {
      "doubleSided": true,
      "name": "tetopear",
      "pbrMetallicRoughness": {
        "baseColorTexture": {
          "index": 0
        }
      }
    }
  ],
  "meshes": [
    {
      "name": "Object_0",
      "primitives": [
        {
          "attributes": {
            "NORMAL": 1,
            "POSITION": 0,
            "TEXCOORD_0": 2
          },
          "indices": 3,
          "material": 0,
          "mode": 4
        }
      ]
    }
  ],
  "nodes": [
    {
      "children": [
        1
      ],
      "matrix": [
        1.0,
        0.0,
        0.0,
        0.0,
        0.0,
        2.220446049250313e-16,
        -1.0,
        0.0,
        0.0,
        1.0,
        2.220446049250313e-16,
        0.0,
        0.0,
        0.0,
        0.0,
        1.0
      ],
      "name": "Sketchfab_model"
    },
    {
      "children": [
        2
      ],
      "name": "root"
    },
    {
      "children": [
        3
      ],
      "matrix": [
        1.0,
        0.0,
        0.0,
        0.0,
        0.0,
        2.220446049250313e-16,
        1.0,
        0.0,
        0.0,
        -1.0,
        2.220446049250313e-16,
        0.0,
        0.0,
        0.0,
        0.0,
        1.0
      ],
      "name": "GLTF_SceneRootNode"
    },
    {
      "children": [
        4
      ],
      "name": "tetopear_0"
    },
    {
      "mesh": 0,
      "name": "Object_4"
    }
  ],
  "samplers": [
    {
      "magFilter": 9729,
      "minFilter": 9987,
      "wrapS": 10497,
      "wrapT": 10497
    }
  ],
  "scene": 0,
  "scenes": [
    {
      "name": "Sketchfab_Scene",
      "nodes": [
        0
      ]
    }
  ],
  "textures": [
    {
      "sampler": 0,
      "source": 0
    }
  ]
}
